<?xml version="1.0" encoding="UTF-8"?>
<svg xmlns="http://www.w3.org/2000/svg" xmlns:xlink="http://www.w3.org/1999/xlink" width="89pt" height="125pt" viewBox="0 0 89 125" version="1.1">
<g id="surface1">
<path style=" stroke:none;fill-rule:nonzero;fill:rgb(14.901961%,30.196078%,89.411765%);fill-opacity:1;" d="M 44.445312 124.683594 L 8.226562 114.667969 L 0.15625 24.503906 L 88.84375 24.503906 L 80.765625 114.65625 Z M 44.445312 124.683594 "/>
<path style=" stroke:none;fill-rule:nonzero;fill:rgb(16.078431%,39.607843%,94.509804%);fill-opacity:1;" d="M 73.847656 108.914062 L 80.753906 31.875 L 44.5 31.875 L 44.5 117.019531 Z M 73.847656 108.914062 "/>
<path style=" stroke:none;fill-rule:nonzero;fill:rgb(92.156863%,92.156863%,92.156863%);fill-opacity:1;" d="M 18.660156 65.316406 L 19.652344 76.375 L 44.5 76.375 L 44.5 65.316406 Z M 18.660156 65.316406 "/>
<path style=" stroke:none;fill-rule:nonzero;fill:rgb(92.156863%,92.156863%,92.156863%);fill-opacity:1;" d="M 16.660156 42.933594 L 17.667969 53.992188 L 44.5 53.992188 L 44.5 42.933594 Z M 16.660156 42.933594 "/>
<path style=" stroke:none;fill-rule:nonzero;fill:rgb(92.156863%,92.156863%,92.156863%);fill-opacity:1;" d="M 44.5 94.039062 L 44.453125 94.050781 L 32.085938 90.726562 L 31.296875 81.90625 L 20.148438 81.90625 L 21.703125 99.269531 L 44.449219 105.558594 L 44.5 105.542969 Z M 44.5 94.039062 "/>
<path style=" stroke:none;fill-rule:nonzero;fill:rgb(0%,0%,0%);fill-opacity:1;" d="M 21.027344 0 L 34.476562 0 L 34.476562 5.601562 L 26.652344 5.601562 L 26.652344 11.203125 L 34.476562 11.203125 L 34.476562 16.804688 L 21.027344 16.804688 Z M 21.027344 0 "/>
<path style=" stroke:none;fill-rule:nonzero;fill:rgb(0%,0%,0%);fill-opacity:1;" d="M 37.164062 0 L 50.613281 0 L 50.613281 4.871094 L 42.789062 4.871094 L 42.789062 5.84375 L 50.613281 5.84375 L 50.613281 17.046875 L 37.164062 17.046875 L 37.164062 11.933594 L 44.988281 11.933594 L 44.988281 10.957031 L 37.164062 10.957031 Z M 37.164062 0 "/>
<path style=" stroke:none;fill-rule:nonzero;fill:rgb(0%,0%,0%);fill-opacity:1;" d="M 53.300781 0 L 66.75 0 L 66.75 4.871094 L 58.925781 4.871094 L 58.925781 5.84375 L 66.75 5.84375 L 66.75 17.046875 L 53.300781 17.046875 L 53.300781 11.933594 L 61.125 11.933594 L 61.125 10.957031 L 53.300781 10.957031 Z M 53.300781 0 "/>
<path style=" stroke:none;fill-rule:nonzero;fill:rgb(100%,100%,100%);fill-opacity:1;" d="M 70.269531 65.316406 L 72.273438 42.933594 L 44.460938 42.933594 L 44.460938 53.992188 L 60.105469 53.992188 L 59.097656 65.316406 L 44.460938 65.316406 L 44.460938 76.375 L 58.132812 76.375 L 56.84375 90.71875 L 44.460938 94.046875 L 44.460938 105.550781 L 67.222656 99.269531 L 67.390625 97.398438 L 70 68.285156 Z M 70.269531 65.316406 "/>
</g>
</svg>
