<?xml version="1.0" encoding="UTF-8"?>
<svg xmlns="http://www.w3.org/2000/svg" xmlns:xlink="http://www.w3.org/1999/xlink" width="31pt" height="31pt" viewBox="0 0 31 31" version="1.1">
<g id="surface1">
<path style=" stroke:none;fill-rule:nonzero;fill:rgb(96.470588%,92.941176%,92.941176%);fill-opacity:1;" d="M 23.371094 3.210938 C 23.371094 3.542969 23.101562 3.8125 22.765625 3.8125 C 22.429688 3.8125 22.160156 3.542969 22.160156 3.210938 C 22.160156 2.875 22.429688 2.601562 22.765625 2.601562 C 23.101562 2.601562 23.371094 2.875 23.371094 3.210938 Z M 23.371094 3.210938 "/>
<path style=" stroke:none;fill-rule:nonzero;fill:rgb(96.470588%,92.941176%,92.941176%);fill-opacity:1;" d="M 15.5 6.417969 C 9.824219 6.417969 5.207031 11.035156 5.207031 16.710938 C 5.207031 22.441406 9.863281 27.003906 15.5 27.003906 C 21.152344 27.003906 25.792969 22.433594 25.792969 16.710938 C 25.792969 11.035156 21.175781 6.417969 15.5 6.417969 Z M 13.636719 25.601562 C 13.667969 25.46875 13.683594 25.328125 13.683594 25.1875 L 13.683594 22.777344 C 13.683594 21.894531 13.988281 21.753906 14.34375 21.21875 C 14.457031 21.046875 14.472656 20.828125 14.386719 20.636719 C 14.304688 20.449219 14.128906 20.316406 13.925781 20.289062 C 11.523438 19.929688 10.582031 18.691406 10.210938 17.714844 C 9.722656 16.414062 9.980469 14.796875 10.84375 13.773438 C 10.972656 13.621094 11.089844 13.34375 10.996094 13.066406 C 10.8125 12.511719 10.84375 11.625 10.957031 11.28125 C 11.480469 11.359375 11.964844 11.652344 12.519531 11.992188 C 12.84375 12.1875 13.070312 12.367188 13.460938 12.261719 C 14.140625 12.078125 14.824219 11.980469 15.5 11.972656 C 16.175781 11.980469 16.859375 12.078125 17.542969 12.261719 C 17.925781 12.367188 18.164062 12.183594 18.480469 11.992188 C 19.035156 11.652344 19.523438 11.359375 20.042969 11.28125 C 20.15625 11.625 20.1875 12.511719 20.003906 13.0625 C 19.910156 13.34375 20.027344 13.621094 20.15625 13.773438 C 21.019531 14.796875 21.277344 16.414062 20.789062 17.714844 C 20.417969 18.691406 19.476562 19.929688 17.074219 20.289062 C 16.871094 20.316406 16.695312 20.449219 16.613281 20.636719 C 16.527344 20.828125 16.542969 21.046875 16.65625 21.21875 C 17.007812 21.753906 17.316406 21.890625 17.316406 22.777344 L 17.316406 25.191406 C 17.316406 25.332031 17.332031 25.46875 17.363281 25.601562 C 16.753906 25.726562 16.128906 25.792969 15.5 25.792969 C 14.871094 25.792969 14.246094 25.726562 13.636719 25.601562 Z M 18.535156 25.273438 C 18.53125 25.246094 18.527344 25.21875 18.527344 25.1875 L 18.527344 22.777344 C 18.527344 22.082031 18.375 21.628906 18.1875 21.292969 C 20.023438 20.796875 21.332031 19.699219 21.921875 18.144531 C 22.539062 16.5 22.257812 14.535156 21.226562 13.175781 C 21.414062 12.347656 21.410156 11.039062 20.960938 10.445312 C 20.757812 10.179688 20.476562 10.042969 20.164062 10.054688 C 19.21875 10.097656 18.488281 10.570312 17.695312 11.050781 C 16.964844 10.867188 16.230469 10.769531 15.507812 10.761719 C 15.503906 10.757812 15.496094 10.757812 15.492188 10.761719 C 14.769531 10.769531 14.03125 10.867188 13.304688 11.050781 C 12.519531 10.574219 11.785156 10.097656 10.835938 10.054688 C 10.523438 10.039062 10.242188 10.179688 10.039062 10.445312 C 9.589844 11.039062 9.585938 12.34375 9.773438 13.175781 C 8.742188 14.535156 8.460938 16.5 9.078125 18.144531 C 9.667969 19.699219 10.976562 20.796875 12.8125 21.292969 C 12.664062 21.558594 12.539062 21.898438 12.492188 22.371094 C 11.742188 22.632812 11.136719 22.460938 10.726562 21.765625 C 10.242188 20.957031 9.429688 20.304688 8.492188 20.382812 C 8.160156 20.414062 7.914062 20.707031 7.941406 21.039062 C 7.972656 21.371094 8.265625 21.621094 8.597656 21.589844 C 9.03125 21.554688 9.457031 22.003906 9.683594 22.382812 C 10.332031 23.476562 11.378906 23.863281 12.472656 23.628906 L 12.472656 25.183594 C 12.472656 25.214844 12.46875 25.242188 12.464844 25.273438 C 8.882812 24 6.417969 20.550781 6.417969 16.710938 C 6.417969 11.703125 10.492188 7.628906 15.5 7.628906 C 20.507812 7.628906 24.582031 11.703125 24.582031 16.710938 C 24.582031 20.550781 22.117188 24 18.535156 25.273438 Z M 18.535156 25.273438 "/>
<path style=" stroke:none;fill-rule:nonzero;fill:rgb(96.470588%,92.941176%,92.941176%);fill-opacity:1;" d="M 27.972656 0 L 3.027344 0 C 1.359375 0 0 1.359375 0 3.027344 L 0 27.972656 C 0 29.640625 1.359375 31 3.027344 31 L 27.972656 31 C 29.640625 31 31 29.640625 31 27.972656 L 31 3.027344 C 31 1.359375 29.640625 0 27.972656 0 Z M 29.789062 27.972656 C 29.789062 28.972656 28.972656 29.789062 27.972656 29.789062 L 3.027344 29.789062 C 2.027344 29.789062 1.210938 28.972656 1.210938 27.972656 L 1.210938 3.027344 C 1.210938 2.027344 2.027344 1.210938 3.027344 1.210938 L 27.972656 1.210938 C 28.972656 1.210938 29.789062 2.027344 29.789062 3.027344 Z M 29.789062 27.972656 "/>
<path style=" stroke:none;fill-rule:nonzero;fill:rgb(96.470588%,92.941176%,92.941176%);fill-opacity:1;" d="M 8.234375 3.8125 L 20.34375 3.8125 C 20.679688 3.8125 20.949219 3.542969 20.949219 3.210938 C 20.949219 2.875 20.679688 2.601562 20.34375 2.601562 L 8.234375 2.601562 C 7.898438 2.601562 7.628906 2.875 7.628906 3.210938 C 7.628906 3.542969 7.898438 3.8125 8.234375 3.8125 Z M 8.234375 3.8125 "/>
</g>
</svg>
