<?xml version="1.0" encoding="UTF-8"?>
<svg xmlns="http://www.w3.org/2000/svg" xmlns:xlink="http://www.w3.org/1999/xlink" width="125pt" height="125pt" viewBox="0 0 125 125" version="1.1">
<g id="surface1">
<path style=" stroke:none;fill-rule:nonzero;fill:rgb(0%,0%,0%);fill-opacity:1;" d="M 26.460938 0 L 32.09375 0 L 32.09375 5.566406 L 37.25 5.566406 L 37.25 0 L 42.882812 0 L 42.882812 16.855469 L 37.25 16.855469 L 37.25 11.210938 L 32.09375 11.210938 L 32.09375 16.855469 L 26.460938 16.855469 Z M 26.460938 0 "/>
<path style=" stroke:none;fill-rule:nonzero;fill:rgb(0%,0%,0%);fill-opacity:1;" d="M 50.292969 5.589844 L 45.332031 5.589844 L 45.332031 0 L 60.886719 0 L 60.886719 5.589844 L 55.925781 5.589844 L 55.925781 16.855469 L 50.292969 16.855469 Z M 50.292969 5.589844 "/>
<path style=" stroke:none;fill-rule:nonzero;fill:rgb(0%,0%,0%);fill-opacity:1;" d="M 63.355469 0 L 69.230469 0 L 72.84375 5.921875 L 76.457031 0 L 82.332031 0 L 82.332031 16.855469 L 76.722656 16.855469 L 76.722656 8.5 L 72.847656 14.496094 L 72.75 14.496094 L 68.871094 8.5 L 68.871094 16.855469 L 63.355469 16.855469 Z M 63.355469 0 "/>
<path style=" stroke:none;fill-rule:nonzero;fill:rgb(0%,0%,0%);fill-opacity:1;" d="M 85.136719 0 L 90.773438 0 L 90.773438 11.285156 L 98.695312 11.285156 L 98.695312 16.855469 L 85.136719 16.855469 Z M 85.136719 0 "/>
<path style=" stroke:none;fill-rule:nonzero;fill:rgb(89.019608%,30.588235%,14.901961%);fill-opacity:1;" d="M 26.152344 114.921875 L 18.070312 24.242188 L 106.859375 24.242188 L 98.765625 114.929688 L 62.445312 125 Z M 26.152344 114.921875 "/>
<path style=" stroke:none;fill-rule:nonzero;fill:rgb(93.72549%,40%,16.470588%);fill-opacity:1;" d="M 62.464844 31.65625 L 62.464844 117.296875 L 91.835938 109.15625 L 98.757812 31.65625 Z M 62.464844 31.65625 "/>
<path style=" stroke:none;fill-rule:nonzero;fill:rgb(100%,100%,100%);fill-opacity:1;" d="M 34.609375 42.777344 L 37.609375 76.410156 L 76.15625 76.410156 L 74.863281 90.835938 L 62.449219 94.191406 L 50.0625 90.839844 L 49.234375 81.578125 L 38.070312 81.578125 L 39.667969 99.433594 L 62.449219 105.761719 L 85.257812 99.433594 L 88.316406 65.289062 L 47.78125 65.289062 L 46.761719 53.902344 L 89.324219 53.902344 L 90.320312 42.777344 Z M 34.609375 42.777344 "/>
<path style=" stroke:none;fill-rule:nonzero;fill:rgb(92.156863%,92.156863%,92.156863%);fill-opacity:1;" d="M 62.464844 42.777344 L 34.609375 42.777344 L 37.609375 76.410156 L 62.464844 76.410156 L 62.464844 65.289062 L 47.78125 65.289062 L 46.761719 53.902344 L 62.464844 53.902344 Z M 62.464844 42.777344 "/>
<path style=" stroke:none;fill-rule:nonzero;fill:rgb(92.156863%,92.156863%,92.156863%);fill-opacity:1;" d="M 62.464844 94.1875 L 62.449219 94.191406 L 50.0625 90.839844 L 49.234375 81.578125 L 38.070312 81.578125 L 39.667969 99.433594 L 62.449219 105.761719 L 62.464844 105.757812 Z M 62.464844 94.1875 "/>
</g>
</svg>
