<?xml version="1.0" encoding="UTF-8"?>
<svg xmlns="http://www.w3.org/2000/svg" xmlns:xlink="http://www.w3.org/1999/xlink" width="31pt" height="30pt" viewBox="0 0 31 30" version="1.1">
<g id="surface1">
<path style=" stroke:none;fill-rule:nonzero;fill:rgb(95.686275%,95.294118%,95.294118%);fill-opacity:1;" d="M 3.15625 8.449219 C 5.015625 8.523438 6.898438 7.996094 7.765625 6.277344 C 8.851562 4.128906 6.871094 2.113281 4.75 2.019531 C 4.738281 2.019531 4.726562 2.019531 4.714844 2.019531 C 4.691406 2.023438 4.664062 2.023438 4.640625 2.023438 C 4.632812 2.023438 4.621094 2.023438 4.609375 2.023438 C 2.847656 2.078125 1 2.65625 0.242188 4.324219 C -0.660156 6.292969 1.117188 8.367188 3.15625 8.449219 Z M 1.601562 4.152344 C 1.863281 3.488281 2.390625 2.933594 3.183594 2.679688 C 3.539062 2.566406 3.625 2.75 3.355469 3.003906 C 2.894531 3.433594 2.414062 3.875 1.921875 4.332031 C 1.652344 4.585938 1.464844 4.492188 1.601562 4.152344 Z M 1.914062 4.390625 C 2.425781 3.917969 2.925781 3.453125 3.417969 2.996094 C 3.6875 2.746094 4.21875 2.550781 4.578125 2.65625 C 7.410156 3.492188 7.488281 8.390625 3.722656 7.894531 C 3.664062 7.890625 3.601562 7.875 3.546875 7.859375 C 3.453125 7.839844 3.503906 7.691406 3.660156 7.535156 C 3.816406 7.382812 3.882812 7.210938 3.800781 7.152344 C 3.753906 7.117188 3.707031 7.078125 3.664062 7.035156 C 3.632812 7.003906 3.601562 6.972656 3.578125 6.9375 C 3.53125 6.882812 3.320312 7.003906 3.109375 7.203125 C 2.890625 7.40625 2.710938 7.566406 2.699219 7.558594 C 2.691406 7.558594 2.859375 7.386719 3.082031 7.183594 C 3.296875 6.980469 3.285156 6.96875 3.0625 7.171875 C 2.84375 7.375 2.480469 7.4375 2.285156 7.265625 C 2.089844 7.089844 2.179688 6.714844 2.453125 6.460938 C 2.460938 6.449219 2.472656 6.441406 2.484375 6.429688 C 2.753906 6.175781 2.898438 5.777344 2.847656 5.527344 C 2.796875 5.273438 2.578125 5.273438 2.3125 5.527344 C 2.230469 5.605469 2.148438 5.6875 2.070312 5.765625 C 1.800781 6.019531 1.476562 5.953125 1.425781 5.589844 C 1.425781 5.5625 1.421875 5.53125 1.417969 5.503906 C 1.378906 5.140625 1.644531 4.640625 1.914062 4.390625 Z M 1.914062 4.390625 "/>
<path style=" stroke:none;fill-rule:nonzero;fill:rgb(95.686275%,95.294118%,95.294118%);fill-opacity:1;" d="M 4.230469 10.304688 C 4.136719 10.304688 4.046875 10.3125 3.925781 10.332031 C 3.765625 10.355469 3.613281 10.390625 3.464844 10.425781 C 3.214844 10.488281 2.730469 10.613281 2.414062 10.773438 C 2.226562 10.867188 2.046875 10.988281 1.882812 11.128906 C -0.335938 12.816406 0.4375 16.523438 0.4375 19.351562 C 0.4375 22.660156 -0.765625 28.488281 4.441406 28.054688 C 9.097656 27.664062 8.09375 22.941406 8.09375 19.65625 C 8.089844 16.078125 9.472656 10.304688 4.230469 10.304688 Z M 6.652344 26.125 C 6.527344 26.871094 6.191406 27.308594 5.75 27.511719 C 5.417969 27.667969 5.199219 27.636719 5.328125 27.597656 C 5.457031 27.566406 5.566406 27.511719 5.589844 27.492188 C 5.605469 27.476562 5.394531 27.445312 5.128906 27.371094 C 4.863281 27.296875 4.578125 27.269531 4.472656 27.359375 C 4.371094 27.453125 3.996094 27.4375 3.667969 27.257812 C 3.402344 27.117188 3.152344 26.941406 2.917969 26.742188 C 2.636719 26.503906 2.625 26.09375 2.847656 25.875 C 3.070312 25.65625 3.230469 25.398438 3.21875 25.296875 C 3.203125 25.195312 2.980469 25.308594 2.710938 25.546875 C 2.445312 25.785156 2.097656 25.792969 1.980469 25.546875 C 1.859375 25.296875 2.035156 24.878906 2.316406 24.636719 C 2.433594 24.535156 2.550781 24.429688 2.667969 24.328125 C 2.945312 24.082031 3.167969 23.644531 3.167969 23.34375 C 3.167969 23.046875 2.945312 23.003906 2.675781 23.25 C 2.53125 23.378906 2.390625 23.507812 2.25 23.636719 C 1.972656 23.886719 1.753906 23.789062 1.753906 23.429688 C 1.753906 22.828125 1.753906 22.226562 1.753906 21.625 C 1.753906 21.261719 1.964844 20.757812 2.226562 20.496094 C 2.382812 20.339844 2.539062 20.179688 2.699219 20.023438 C 2.960938 19.765625 3.171875 19.339844 3.171875 19.070312 C 3.171875 18.808594 2.957031 18.800781 2.691406 19.058594 C 2.535156 19.207031 2.378906 19.355469 2.226562 19.503906 C 1.960938 19.761719 1.734375 19.671875 1.707031 19.308594 C 1.699219 19.230469 1.695312 19.144531 1.6875 19.0625 C 1.664062 18.699219 1.804688 18.25 2.003906 18.0625 C 2.121094 17.941406 2.242188 17.828125 2.363281 17.714844 C 2.441406 17.628906 2.523438 17.546875 2.601562 17.460938 C 2.734375 17.324219 2.621094 17.410156 2.351562 17.664062 C 2.277344 17.734375 2.199219 17.804688 2.125 17.875 C 1.859375 18.125 1.625 18.140625 1.609375 17.910156 C 1.597656 17.671875 1.800781 17.277344 2.070312 17.023438 C 2.273438 16.824219 2.480469 16.628906 2.6875 16.433594 C 2.957031 16.179688 3.167969 15.75 3.167969 15.476562 C 3.167969 15.207031 2.960938 15.195312 2.699219 15.457031 C 2.472656 15.683594 2.246094 15.910156 2.019531 16.136719 C 1.761719 16.394531 1.539062 16.347656 1.539062 16.019531 C 1.535156 15.699219 1.753906 15.226562 2.015625 14.964844 C 2.242188 14.738281 2.472656 14.511719 2.699219 14.285156 C 2.960938 14.023438 3.167969 13.601562 3.167969 13.339844 L 3.167969 12.871094 C 3.167969 12.785156 3.175781 12.699219 3.183594 12.617188 C 3.199219 12.480469 3.007812 12.578125 2.738281 12.832031 C 2.539062 13.019531 2.335938 13.210938 2.136719 13.40625 C 1.871094 13.660156 1.6875 13.574219 1.761719 13.21875 C 1.960938 12.285156 2.316406 11.511719 2.917969 11.097656 C 3.222656 10.890625 3.835938 10.828125 4.207031 10.882812 C 7.464844 11.375 6.78125 14.847656 6.78125 17.453125 C 6.78125 20.285156 7.117188 23.324219 6.652344 26.125 Z M 6.652344 26.125 "/>
<path style=" stroke:none;fill-rule:nonzero;fill:rgb(95.686275%,95.294118%,95.294118%);fill-opacity:1;" d="M 10.339844 19.78125 C 10.339844 21.507812 9.507812 25.613281 10.867188 26.941406 C 12.152344 28.195312 15.328125 28.6875 16.820312 27.246094 C 18.667969 25.457031 17.988281 22.332031 17.988281 20.003906 C 17.988281 19.425781 17.988281 18.84375 17.988281 18.265625 C 17.988281 16.664062 18.519531 13.285156 22.234375 15.5 C 23.765625 16.417969 23.371094 19.320312 23.371094 20.839844 C 23.371094 23.5625 22.5 27.46875 26.195312 28.042969 C 28.230469 28.359375 30.203125 27.519531 30.847656 25.703125 C 30.972656 25.363281 31.007812 25.054688 31.015625 25.039062 C 31.015625 25.027344 31.019531 25.015625 31.019531 25.007812 C 31.019531 20.699219 31.941406 15.375 28.898438 11.84375 C 26.574219 9.144531 21.542969 9.304688 18.511719 11.328125 C 18.203125 11.535156 17.984375 11.566406 17.933594 11.378906 C 17.898438 11.257812 17.835938 11.160156 17.738281 11.09375 C 17.191406 10.726562 16.824219 10.464844 16.105469 10.398438 C 14.671875 10.269531 13.304688 10.292969 11.875 10.507812 C 9.152344 10.910156 10.34375 14.355469 10.34375 16.335938 C 10.339844 17.484375 10.339844 18.632812 10.339844 19.78125 Z M 13.488281 10.820312 C 14.375 10.820312 15.585938 10.753906 16.296875 11.414062 C 16.566406 11.664062 16.617188 12.1875 16.628906 12.546875 C 16.644531 12.886719 16.675781 13.242188 16.710938 13.261719 C 16.996094 13.433594 17.808594 13.207031 17.972656 12.933594 C 18.304688 12.382812 18.691406 11.929688 19.109375 11.5625 C 19.390625 11.320312 19.589844 11.210938 19.515625 11.277344 C 19.449219 11.34375 19.394531 11.40625 19.394531 11.417969 C 19.402344 11.425781 19.492188 11.347656 19.605469 11.242188 C 19.714844 11.136719 19.820312 11.039062 19.835938 11.03125 C 19.851562 11.027344 19.757812 11.117188 19.632812 11.234375 C 19.503906 11.355469 19.40625 11.496094 19.40625 11.550781 C 19.40625 11.609375 19.628906 11.453125 19.898438 11.203125 C 20.167969 10.953125 20.664062 10.625 21.023438 10.519531 C 21.140625 10.488281 21.261719 10.453125 21.382812 10.429688 C 21.75 10.351562 21.992188 10.390625 21.917969 10.457031 C 21.84375 10.527344 21.90625 10.523438 22.058594 10.457031 C 22.210938 10.390625 22.347656 10.335938 22.359375 10.328125 C 22.367188 10.320312 22.679688 10.300781 23.050781 10.332031 C 25.320312 10.519531 27.585938 11.917969 28.738281 13.738281 C 29.589844 15.085938 29.710938 16.835938 29.710938 18.363281 C 29.710938 20.46875 29.710938 22.570312 29.710938 24.675781 C 29.710938 25.039062 29.664062 25.625 29.539062 25.964844 C 29.355469 26.460938 29.082031 26.824219 28.757812 27.074219 C 28.460938 27.300781 27.949219 27.347656 27.699219 27.246094 C 27.453125 27.144531 27.179688 27.117188 27.066406 27.230469 C 26.949219 27.34375 26.652344 27.390625 26.417969 27.289062 C 26.1875 27.1875 26.160156 26.929688 26.335938 26.753906 C 26.511719 26.582031 26.566406 26.332031 26.472656 26.179688 C 26.378906 26.035156 26.144531 26.078125 25.925781 26.289062 C 25.707031 26.503906 25.351562 26.503906 25.1875 26.257812 C 25.019531 26.015625 25.140625 25.582031 25.402344 25.324219 C 25.476562 25.253906 25.546875 25.179688 25.621094 25.105469 C 25.886719 24.847656 26.101562 24.511719 26.101562 24.355469 C 26.101562 24.199219 25.882812 24.277344 25.621094 24.535156 C 25.496094 24.652344 25.375 24.773438 25.25 24.890625 C 24.984375 25.148438 24.746094 25.277344 24.71875 25.183594 C 24.707031 25.125 24.695312 25.070312 24.683594 25.007812 C 24.671875 24.960938 24.667969 24.910156 24.667969 24.859375 C 24.65625 24.777344 24.867188 24.5 25.132812 24.242188 C 25.300781 24.082031 25.460938 23.925781 25.621094 23.769531 C 25.886719 23.511719 26.101562 23.191406 26.101562 23.046875 C 26.101562 22.902344 25.882812 23 25.621094 23.253906 C 25.453125 23.414062 25.289062 23.574219 25.121094 23.734375 C 24.855469 23.992188 24.644531 23.953125 24.65625 23.648438 C 24.667969 23.347656 24.890625 22.898438 25.15625 22.640625 C 25.3125 22.488281 25.464844 22.335938 25.621094 22.1875 C 25.886719 21.929688 26.101562 21.550781 26.101562 21.335938 C 26.101562 21.125 25.882812 21.160156 25.613281 21.414062 C 25.449219 21.566406 25.304688 21.699219 25.175781 21.820312 C 24.910156 22.070312 24.90625 22.066406 25.167969 21.8125 C 25.300781 21.6875 25.449219 21.550781 25.613281 21.390625 C 25.882812 21.140625 25.878906 21.136719 25.609375 21.390625 C 25.46875 21.523438 25.324219 21.65625 25.175781 21.792969 C 24.90625 22.042969 24.695312 21.953125 24.703125 21.589844 C 24.707031 21.269531 24.714844 20.945312 24.71875 20.621094 C 24.722656 20.261719 24.9375 19.753906 25.199219 19.5 C 25.34375 19.363281 25.484375 19.222656 25.621094 19.089844 C 25.886719 18.832031 26.101562 18.539062 26.101562 18.441406 L 26.101562 18.265625 C 26.101562 18.234375 26.097656 18.203125 26.09375 18.171875 C 26.089844 18.125 25.878906 18.292969 25.617188 18.554688 C 25.472656 18.695312 25.335938 18.832031 25.191406 18.972656 C 24.929688 19.234375 24.714844 19.148438 24.695312 18.789062 C 24.683594 18.476562 24.65625 18.167969 24.621094 17.855469 C 24.582031 17.496094 24.742188 16.996094 25.003906 16.738281 C 25.078125 16.667969 25.148438 16.597656 25.21875 16.523438 C 25.480469 16.261719 25.632812 15.910156 25.539062 15.738281 C 25.484375 15.632812 25.421875 15.53125 25.355469 15.4375 C 25.335938 15.410156 25.3125 15.386719 25.289062 15.363281 C 25.25 15.324219 25.011719 15.492188 24.757812 15.742188 C 24.5 15.992188 24.242188 16.03125 24.15625 15.839844 C 24.074219 15.652344 24.136719 15.355469 24.328125 15.164062 C 24.523438 14.980469 24.601562 14.773438 24.503906 14.71875 C 24.40625 14.660156 24.195312 14.753906 24.039062 14.914062 C 23.886719 15.074219 23.609375 15.011719 23.375 14.835938 C 23.136719 14.652344 22.949219 14.519531 22.992188 14.472656 C 23.039062 14.425781 23.027344 14.382812 22.972656 14.378906 C 22.941406 14.375 22.910156 14.371094 22.875 14.371094 C 22.804688 14.371094 22.730469 14.375 22.660156 14.378906 C 22.542969 14.386719 22.160156 14.316406 21.78125 14.300781 C 19.527344 14.195312 16.675781 16.140625 16.675781 18.40625 C 16.675781 20.394531 16.675781 22.378906 16.675781 24.367188 C 16.675781 25.828125 16.453125 27.542969 14.339844 27.542969 C 14.304688 27.542969 14.277344 27.539062 14.253906 27.535156 C 14.203125 27.53125 14.242188 27.449219 14.335938 27.355469 C 14.429688 27.261719 14.289062 27.078125 14.0625 26.902344 C 13.832031 26.722656 13.523438 26.699219 13.328125 26.886719 C 13.132812 27.078125 12.695312 27.09375 12.4375 26.832031 C 12.355469 26.746094 12.277344 26.65625 12.207031 26.558594 C 11.992188 26.257812 12.101562 25.765625 12.355469 25.496094 C 12.433594 25.417969 12.511719 25.339844 12.585938 25.261719 C 12.84375 24.996094 13.054688 24.484375 13.054688 24.125 C 13.054688 23.996094 13.054688 23.863281 13.054688 23.734375 C 13.058594 23.375 13.011719 23.128906 12.953125 23.183594 C 12.917969 23.21875 12.882812 23.253906 12.84375 23.289062 C 12.585938 23.542969 12.320312 23.796875 12.054688 24.050781 C 11.789062 24.304688 11.546875 24.21875 11.535156 23.855469 C 11.523438 23.335938 11.546875 22.804688 11.570312 22.300781 C 11.59375 21.9375 11.824219 21.4375 12.089844 21.179688 C 12.253906 21.019531 12.421875 20.859375 12.589844 20.695312 C 12.855469 20.4375 13.066406 20.101562 13.066406 19.9375 C 13.066406 19.777344 12.84375 19.847656 12.570312 20.089844 C 12.425781 20.21875 12.285156 20.34375 12.144531 20.464844 C 11.867188 20.707031 11.644531 20.847656 11.648438 20.769531 C 11.648438 20.722656 11.652344 20.675781 11.652344 20.632812 C 11.652344 20.234375 11.652344 19.839844 11.652344 19.441406 C 11.652344 19.078125 11.871094 18.582031 12.144531 18.332031 C 12.289062 18.203125 12.433594 18.070312 12.574219 17.9375 C 12.847656 17.6875 13.070312 17.460938 13.070312 17.429688 C 13.070312 17.398438 12.851562 17.578125 12.585938 17.832031 C 12.4375 17.972656 12.285156 18.113281 12.136719 18.257812 C 11.867188 18.507812 11.652344 18.417969 11.652344 18.058594 C 11.652344 17.699219 11.652344 17.339844 11.652344 16.984375 C 11.652344 16.617188 11.875 16.125 12.148438 15.878906 C 12.289062 15.753906 12.429688 15.628906 12.574219 15.5 C 12.84375 15.253906 13.066406 14.796875 13.066406 14.476562 C 13.066406 14.15625 12.84375 14.097656 12.574219 14.34375 C 12.429688 14.46875 12.289062 14.597656 12.148438 14.726562 C 11.875 14.972656 11.652344 15.101562 11.652344 15.015625 C 11.652344 14.960938 11.652344 14.910156 11.652344 14.859375 C 11.652344 14.71875 11.644531 14.566406 11.632812 14.414062 C 11.621094 14.171875 11.820312 13.773438 12.097656 13.523438 C 12.253906 13.382812 12.414062 13.242188 12.570312 13.097656 C 12.84375 12.851562 13.066406 12.53125 13.0625 12.390625 C 13.0625 12.25 12.84375 12.339844 12.574219 12.59375 C 12.417969 12.742188 12.242188 12.910156 12.046875 13.097656 C 11.78125 13.351562 11.535156 13.265625 11.53125 12.902344 C 11.515625 11.78125 11.800781 10.820312 13.488281 10.820312 Z M 13.488281 10.820312 "/>
<path style=" stroke:none;fill-rule:nonzero;fill:rgb(95.686275%,95.294118%,95.294118%);fill-opacity:1;" d="M 12.847656 26.371094 C 12.609375 26.609375 12.613281 26.617188 12.855469 26.378906 C 13.097656 26.144531 13.089844 26.132812 12.847656 26.371094 Z M 12.847656 26.371094 "/>
</g>
</svg>
