<?xml version="1.0" encoding="UTF-8"?>
<svg xmlns="http://www.w3.org/2000/svg" xmlns:xlink="http://www.w3.org/1999/xlink" width="220pt" height="111pt" viewBox="0 0 220 111" version="1.1">
<g id="surface1">
<path style=" stroke:none;fill-rule:evenodd;fill:rgb(0%,40.392157%,54.901961%);fill-opacity:1;" d="M 33 82.832031 L 38.15625 82.832031 L 38.15625 62.351562 L 46.207031 80.210938 C 47.121094 82.355469 48.425781 83.148438 50.960938 83.148438 C 53.503906 83.148438 54.734375 82.355469 55.679688 80.210938 L 63.6875 62.351562 L 63.6875 82.832031 L 68.878906 82.832031 L 68.878906 62.351562 C 68.878906 60.359375 68.089844 59.398438 66.421875 58.882812 C 62.492188 57.695312 59.882812 58.730469 58.6875 61.390625 L 50.796875 79.054688 L 43.183594 61.390625 C 42.03125 58.730469 39.375 57.695312 35.414062 58.882812 C 33.78125 59.398438 32.992188 60.359375 32.992188 62.351562 L 32.992188 82.832031 Z M 73.167969 66.167969 L 78.367188 66.167969 L 78.367188 77.425781 C 78.324219 78.054688 78.5625 79.496094 81.390625 79.53125 C 82.851562 79.574219 92.570312 79.53125 92.648438 79.53125 L 92.648438 66.089844 L 97.839844 66.089844 L 97.839844 84.503906 C 97.839844 89.039062 92.246094 90.027344 89.632812 90.070312 L 73.296875 90.070312 L 73.296875 86.617188 L 89.675781 86.617188 C 93.011719 86.253906 92.605469 84.582031 92.605469 84.03125 L 92.605469 82.675781 L 81.625 82.675781 C 76.511719 82.632812 73.21875 80.367188 73.175781 77.78125 L 73.175781 66.167969 Z M 184.59375 53.117188 C 181.421875 53.039062 178.964844 53.359375 176.902344 54.238281 C 176.308594 54.480469 175.355469 54.480469 175.277344 55.226562 C 175.597656 55.550781 175.628906 56.066406 175.914062 56.503906 C 176.386719 57.296875 177.21875 58.375 177.976562 58.925781 C 178.808594 59.5625 179.644531 60.203125 180.511719 60.753906 C 182.058594 61.710938 183.804688 62.273438 185.308594 63.21875 C 186.183594 63.777344 187.050781 64.496094 187.929688 65.089844 C 188.375 65.410156 188.640625 65.925781 189.199219 66.121094 L 189.199219 66.003906 C 188.917969 65.648438 188.839844 65.132812 188.5625 64.738281 C 188.167969 64.34375 187.765625 63.976562 187.371094 63.582031 C 186.226562 62.03125 184.792969 60.675781 183.246094 59.5625 C 181.980469 58.6875 179.207031 57.496094 178.691406 56.023438 L 178.613281 55.945312 C 179.480469 55.867188 180.511719 55.550781 181.34375 55.304688 C 182.695312 54.953125 183.921875 55.03125 185.308594 54.667969 C 185.941406 54.511719 186.578125 54.316406 187.214844 54.117188 L 187.214844 53.757812 C 186.5 53.039062 185.984375 52.089844 185.230469 51.410156 C 183.210938 49.660156 180.984375 47.953125 178.691406 46.519531 C 177.460938 45.722656 175.871094 45.203125 174.566406 44.535156 C 174.082031 44.289062 173.292969 44.167969 173.019531 43.773438 C 172.304688 42.902344 171.910156 41.746094 171.394531 40.714844 C 170.242188 38.523438 169.132812 36.101562 168.136719 33.792969 C 167.421875 32.238281 166.992188 30.6875 166.117188 29.253906 C 162.035156 22.496094 157.59375 18.402344 150.769531 14.378906 C 149.308594 13.550781 147.5625 13.1875 145.707031 12.75 L 142.734375 12.59375 C 142.097656 12.3125 141.460938 11.558594 140.910156 11.195312 C 138.652344 9.765625 132.816406 6.664062 131.148438 10.757812 C 130.082031 13.34375 132.738281 15.894531 133.640625 17.207031 C 134.3125 18.117188 135.1875 19.15625 135.660156 20.1875 C 135.925781 20.863281 136.023438 21.578125 136.296875 22.289062 C 136.933594 24.042969 137.527344 26 138.359375 27.628906 C 138.804688 28.464844 139.269531 29.335938 139.828125 30.09375 C 140.148438 30.53125 140.695312 30.730469 140.816406 31.445312 C 140.257812 32.238281 140.222656 33.4375 139.90625 34.429688 C 138.480469 38.929688 139.03125 44.488281 141.058594 47.789062 C 141.695312 48.789062 143.1875 50.976562 145.21875 50.144531 C 147.003906 49.421875 146.609375 47.160156 147.125 45.171875 C 147.246094 44.6875 147.160156 44.375 147.398438 44.054688 L 147.398438 44.132812 L 149.023438 47.4375 C 150.253906 49.386719 152.394531 51.410156 154.179688 52.761719 C 155.132812 53.480469 155.882812 54.710938 157.078125 55.148438 L 157.078125 55.03125 L 157 55.03125 C 156.757812 54.675781 156.398438 54.511719 156.078125 54.238281 C 155.367188 53.523438 154.574219 52.640625 154.015625 51.851562 C 152.359375 49.625 150.890625 47.160156 149.582031 44.609375 C 148.945312 43.375 148.386719 42.023438 147.871094 40.792969 C 147.640625 40.316406 147.640625 39.601562 147.238281 39.359375 C 146.644531 40.242188 145.777344 40.988281 145.335938 42.066406 C 144.582031 43.773438 144.503906 45.882812 144.230469 48.074219 C 144.066406 48.109375 144.132812 48.074219 144.066406 48.152344 C 142.800781 47.832031 142.363281 46.519531 141.882812 45.410156 C 140.695312 42.585938 140.5 38.050781 141.53125 34.789062 C 141.804688 33.957031 143 31.324219 142.519531 30.53125 C 142.285156 29.773438 141.488281 29.34375 141.058594 28.738281 C 140.542969 27.988281 139.984375 27.03125 139.632812 26.195312 C 138.675781 23.964844 138.203125 21.507812 137.171875 19.273438 C 136.691406 18.238281 135.859375 17.171875 135.1875 16.210938 C 134.433594 15.136719 133.597656 14.386719 133.003906 13.109375 C 132.808594 12.671875 132.53125 11.957031 132.851562 11.480469 C 132.929688 11.164062 133.082031 11.042969 133.402344 10.964844 C 133.917969 10.527344 135.386719 11.085938 135.902344 11.316406 C 137.371094 11.910156 138.601562 12.472656 139.828125 13.308594 C 140.378906 13.703125 140.972656 14.464844 141.695312 14.664062 L 142.527344 14.664062 C 143.789062 14.9375 145.21875 14.742188 146.402344 15.09375 C 148.507812 15.773438 150.40625 16.765625 152.117188 17.84375 C 157.308594 21.144531 161.597656 25.835938 164.492188 31.445312 C 164.964844 32.359375 165.164062 33.195312 165.601562 34.152344 C 166.433594 36.101562 167.464844 38.09375 168.300781 39.996094 C 169.132812 41.867188 169.925781 43.78125 171.109375 45.332031 C 171.703125 46.167969 174.082031 46.597656 175.15625 47.042969 C 175.949219 47.394531 177.175781 47.722656 177.890625 48.152344 C 179.238281 48.988281 180.589844 49.945312 181.859375 50.855469 C 182.488281 51.335938 184.472656 52.332031 184.59375 53.125 Z M 144.160156 18.5625 C 143.609375 18.550781 143.070312 18.621094 142.535156 18.757812 L 142.535156 18.835938 L 142.613281 18.835938 C 142.929688 19.472656 143.480469 19.910156 143.886719 20.460938 L 144.796875 22.375 L 144.875 22.289062 C 145.433594 21.894531 145.707031 21.265625 145.707031 20.308594 C 145.464844 20.03125 145.433594 19.75 145.234375 19.472656 C 144.992188 19.078125 144.476562 18.878906 144.160156 18.5625 Z M 144.160156 18.5625 "/>
<path style=" stroke:none;fill-rule:evenodd;fill:rgb(80.784314%,54.509804%,17.254902%);fill-opacity:1;" d="M 101.800781 82.832031 L 116.710938 82.832031 C 118.457031 82.832031 120.125 82.476562 121.472656 81.839844 C 123.734375 80.804688 124.796875 79.417969 124.796875 77.582031 L 124.796875 73.761719 C 124.796875 72.296875 123.570312 70.902344 121.113281 69.941406 C 119.847656 69.46875 118.257812 69.195312 116.710938 69.195312 L 110.445312 69.195312 C 108.339844 69.195312 107.351562 68.558594 107.078125 67.160156 C 107.035156 67.003906 107.035156 66.839844 107.035156 66.6875 L 107.035156 64.34375 C 107.035156 64.222656 107.035156 64.0625 107.078125 63.898438 C 107.351562 62.824219 107.910156 62.546875 109.742188 62.351562 L 125.003906 62.351562 L 125.003906 58.890625 L 110.488281 58.890625 C 108.394531 58.890625 107.285156 59.011719 106.289062 59.324219 C 103.238281 60.28125 101.886719 61.796875 101.886719 64.460938 L 101.886719 67.476562 C 101.886719 69.824219 104.507812 71.8125 108.941406 72.296875 C 109.425781 72.332031 109.941406 72.332031 110.457031 72.332031 L 115.808594 72.332031 C 116.007812 72.332031 116.203125 72.332031 116.359375 72.375 C 117.984375 72.527344 118.695312 72.816406 119.179688 73.410156 C 119.496094 73.726562 119.574219 74.003906 119.574219 74.363281 L 119.574219 77.382812 C 119.574219 77.746094 119.332031 78.21875 118.859375 78.613281 C 118.386719 79.011719 117.632812 79.296875 116.632812 79.332031 C 116.4375 79.332031 116.324219 79.375 116.117188 79.375 L 101.800781 79.375 Z M 157.078125 76.828125 C 157.078125 80.367188 159.742188 82.355469 165.050781 82.753906 C 165.566406 82.796875 166.039062 82.832031 166.554688 82.832031 L 180.039062 82.832031 L 180.039062 79.375 L 166.433594 79.375 C 163.417969 79.375 162.277344 78.613281 162.277344 76.785156 L 162.277344 58.890625 L 157.066406 58.890625 L 157.066406 76.828125 Z M 128.089844 76.984375 L 128.089844 64.660156 C 128.089844 61.511719 130.308594 59.597656 134.636719 59.003906 C 135.109375 58.96875 135.582031 58.925781 136.023438 58.925781 L 145.851562 58.925781 C 146.367188 58.925781 146.808594 58.96875 147.324219 59.003906 C 151.644531 59.597656 153.828125 61.511719 153.828125 64.660156 L 153.828125 76.984375 C 153.828125 79.53125 152.917969 80.882812 150.769531 81.796875 L 155.847656 86.410156 L 149.859375 86.410156 L 145.734375 82.675781 L 141.574219 82.917969 L 136.023438 82.917969 C 135 82.90625 133.984375 82.769531 133.003906 82.511719 C 129.714844 81.601562 128.089844 79.847656 128.089844 76.984375 Z M 133.683594 76.710938 C 133.683594 76.863281 133.769531 77.027344 133.796875 77.230469 C 134.078125 78.65625 135.429688 79.453125 137.484375 79.453125 L 142.167969 79.453125 L 137.886719 75.554688 L 143.867188 75.554688 L 147.640625 78.976562 C 148.355469 78.582031 148.792969 78.019531 148.945312 77.308594 C 148.988281 77.144531 148.988281 76.949219 148.988281 76.785156 L 148.988281 64.96875 C 148.988281 64.816406 148.988281 64.660156 148.945312 64.496094 C 148.671875 63.140625 147.324219 62.394531 145.304688 62.394531 L 137.492188 62.394531 C 135.1875 62.394531 133.683594 63.382812 133.683594 64.96875 Z M 133.683594 76.710938 "/>
</g>
</svg>
