<?xml version="1.0" encoding="UTF-8"?>
<svg xmlns="http://www.w3.org/2000/svg" xmlns:xlink="http://www.w3.org/1999/xlink" width="100pt" height="89pt" viewBox="0 0 100 89" version="1.1">
<g id="surface1">
<path style=" stroke:none;fill-rule:nonzero;fill:rgb(100%,100%,100%);fill-opacity:1;" d="M 0.292969 44.402344 C 0.292969 51.839844 7.625 58.78125 19.179688 62.691406 C 16.871094 74.199219 18.765625 83.472656 25.089844 87.085938 C 31.59375 90.800781 41.28125 88.230469 50.472656 80.269531 C 59.4375 87.910156 68.492188 90.917969 74.8125 87.292969 C 81.308594 83.566406 83.285156 73.664062 80.914062 61.796875 C 92.949219 57.855469 99.679688 51.9375 99.679688 44.402344 C 99.679688 37.140625 92.339844 30.855469 80.941406 26.96875 C 83.492188 14.613281 81.328125 5.5625 74.742188 1.800781 C 68.390625 -1.828125 59.226562 1.335938 50.132812 9.175781 C 40.671875 0.851562 31.601562 -1.6875 25.019531 2.085938 C 18.675781 5.726562 16.863281 15.167969 19.179688 26.886719 C 8.015625 30.746094 0.292969 37.167969 0.292969 44.402344 Z M 0.292969 44.402344 "/>
<path style=" stroke:none;fill-rule:nonzero;fill:rgb(32.54902%,75.686275%,87.058824%);fill-opacity:1;" d="M 78.523438 30.832031 C 77.609375 30.519531 76.660156 30.222656 75.683594 29.945312 C 75.84375 29.292969 75.992188 28.652344 76.121094 28.023438 C 78.273438 17.679688 76.867188 9.347656 72.066406 6.605469 C 67.460938 3.976562 59.929688 6.71875 52.324219 13.273438 C 51.59375 13.90625 50.859375 14.574219 50.128906 15.273438 C 49.640625 14.808594 49.152344 14.363281 48.664062 13.933594 C 40.695312 6.925781 32.703125 3.96875 27.90625 6.722656 C 23.308594 9.359375 21.945312 17.191406 23.882812 26.992188 C 24.066406 27.941406 24.285156 28.90625 24.535156 29.890625 C 23.402344 30.207031 22.3125 30.546875 21.265625 30.90625 C 11.921875 34.132812 5.953125 39.191406 5.953125 44.4375 C 5.953125 49.859375 12.359375 55.292969 22.09375 58.589844 C 22.863281 58.847656 23.660156 59.09375 24.480469 59.328125 C 24.214844 60.390625 23.980469 61.433594 23.789062 62.449219 C 21.941406 72.082031 23.382812 79.726562 27.972656 82.347656 C 32.710938 85.054688 40.664062 82.273438 48.40625 75.566406 C 49.019531 75.039062 49.632812 74.476562 50.25 73.886719 C 51.046875 74.648438 51.84375 75.367188 52.636719 76.042969 C 60.136719 82.4375 67.546875 85.019531 72.128906 82.390625 C 76.863281 79.675781 78.402344 71.460938 76.40625 61.464844 C 76.25 60.703125 76.074219 59.921875 75.875 59.128906 C 76.433594 58.964844 76.980469 58.796875 77.515625 58.621094 C 87.636719 55.300781 94.21875 49.929688 94.21875 44.4375 C 94.21875 39.171875 88.058594 34.082031 78.523438 30.832031 Z M 78.523438 30.832031 "/>
<path style=" stroke:none;fill-rule:nonzero;fill:rgb(100%,100%,100%);fill-opacity:1;" d="M 76.332031 55.074219 C 75.847656 55.234375 75.351562 55.386719 74.847656 55.535156 C 73.730469 52.03125 72.222656 48.304688 70.378906 44.457031 C 72.140625 40.699219 73.589844 37.023438 74.675781 33.542969 C 75.578125 33.800781 76.453125 34.074219 77.296875 34.363281 C 85.464844 37.148438 90.449219 41.265625 90.449219 44.4375 C 90.449219 47.820312 85.066406 52.207031 76.332031 55.074219 Z M 72.707031 62.191406 C 73.589844 66.609375 73.714844 70.605469 73.128906 73.730469 C 72.605469 76.539062 71.546875 78.410156 70.238281 79.160156 C 67.457031 80.753906 61.507812 78.679688 55.09375 73.210938 C 54.359375 72.585938 53.617188 71.914062 52.875 71.207031 C 55.363281 68.511719 57.847656 65.378906 60.273438 61.902344 C 64.539062 61.527344 68.570312 60.914062 72.226562 60.074219 C 72.40625 60.792969 72.566406 61.5 72.707031 62.191406 Z M 36.046875 78.882812 C 33.328125 79.832031 31.164062 79.859375 29.855469 79.113281 C 27.070312 77.523438 25.914062 71.382812 27.492188 63.144531 C 27.671875 62.203125 27.886719 61.234375 28.136719 60.242188 C 31.753906 61.035156 35.753906 61.605469 40.03125 61.949219 C 42.472656 65.351562 45.03125 68.480469 47.609375 71.222656 C 47.042969 71.757812 46.484375 72.273438 45.925781 72.753906 C 42.5 75.71875 39.070312 77.824219 36.046875 78.882812 Z M 23.3125 55.054688 C 19.007812 53.597656 15.457031 51.703125 13.019531 49.636719 C 10.828125 47.777344 9.726562 45.933594 9.726562 44.4375 C 9.726562 41.253906 14.515625 37.195312 22.507812 34.433594 C 23.476562 34.097656 24.492188 33.785156 25.546875 33.488281 C 26.652344 37.046875 28.097656 40.765625 29.847656 44.53125 C 28.078125 48.347656 26.609375 52.128906 25.492188 55.730469 C 24.742188 55.515625 24.011719 55.289062 23.3125 55.054688 Z M 27.582031 26.277344 C 25.921875 17.878906 27.023438 11.542969 29.796875 9.953125 C 32.75 8.261719 39.277344 10.675781 46.160156 16.726562 C 46.601562 17.113281 47.042969 17.519531 47.484375 17.9375 C 44.921875 20.667969 42.386719 23.773438 39.964844 27.15625 C 35.816406 27.539062 31.839844 28.148438 28.1875 28.96875 C 27.957031 28.054688 27.753906 27.15625 27.582031 26.277344 Z M 65.65625 35.589844 C 64.78125 34.09375 63.882812 32.636719 62.96875 31.214844 C 65.785156 31.570312 68.484375 32.035156 71.019531 32.609375 C 70.257812 35.023438 69.308594 37.550781 68.195312 40.136719 C 67.394531 38.632812 66.546875 37.113281 65.65625 35.589844 Z M 50.128906 20.609375 C 51.867188 22.472656 53.609375 24.558594 55.324219 26.820312 C 53.597656 26.738281 51.847656 26.695312 50.085938 26.695312 C 48.339844 26.695312 46.605469 26.738281 44.890625 26.816406 C 46.605469 24.578125 48.363281 22.496094 50.128906 20.609375 Z M 34.503906 35.613281 C 33.628906 37.113281 32.800781 38.621094 32.011719 40.136719 C 30.914062 37.554688 29.972656 35.019531 29.207031 32.570312 C 31.726562 32.011719 34.410156 31.554688 37.207031 31.210938 C 36.28125 32.640625 35.378906 34.113281 34.503906 35.613281 Z M 37.289062 57.933594 C 34.398438 57.617188 31.671875 57.183594 29.15625 56.640625 C 29.933594 54.148438 30.894531 51.554688 32.015625 48.921875 C 32.804688 50.433594 33.640625 51.941406 34.519531 53.445312 C 35.410156 54.976562 36.339844 56.472656 37.289062 57.933594 Z M 50.234375 68.535156 C 48.445312 66.625 46.664062 64.511719 44.921875 62.238281 C 46.613281 62.304688 48.335938 62.335938 50.085938 62.335938 C 51.886719 62.335938 53.664062 62.296875 55.414062 62.21875 C 53.695312 64.535156 51.960938 66.648438 50.234375 68.535156 Z M 68.230469 48.785156 C 69.410156 51.449219 70.402344 54.027344 71.195312 56.476562 C 68.632812 57.054688 65.871094 57.523438 62.960938 57.867188 C 63.875 56.429688 64.78125 54.945312 65.667969 53.417969 C 66.570312 51.875 67.421875 50.328125 68.230469 48.785156 Z M 62.402344 51.554688 C 61.023438 53.921875 59.605469 56.183594 58.167969 58.320312 C 55.550781 58.507812 52.84375 58.601562 50.085938 58.601562 C 47.339844 58.601562 44.667969 58.515625 42.09375 58.351562 C 40.597656 56.1875 39.152344 53.917969 37.78125 51.574219 C 36.414062 49.234375 35.15625 46.875 34.015625 44.527344 C 35.15625 42.175781 36.410156 39.816406 37.769531 37.480469 C 39.132812 35.140625 40.566406 32.882812 42.050781 30.730469 C 44.675781 30.535156 47.367188 30.433594 50.085938 30.433594 C 52.820312 30.433594 55.515625 30.535156 58.136719 30.734375 C 59.597656 32.867188 61.023438 35.117188 62.390625 37.460938 C 63.773438 39.828125 65.046875 42.175781 66.195312 44.476562 C 65.050781 46.816406 63.78125 49.1875 62.402344 51.554688 Z M 70.183594 9.84375 C 73.136719 11.53125 74.285156 18.339844 72.429688 27.269531 C 72.3125 27.839844 72.179688 28.421875 72.035156 29.007812 C 68.371094 28.171875 64.394531 27.546875 60.230469 27.160156 C 57.804688 23.738281 55.292969 20.628906 52.769531 17.9375 C 53.449219 17.289062 54.125 16.675781 54.800781 16.09375 C 61.316406 10.476562 67.40625 8.257812 70.183594 9.84375 Z M 70.183594 9.84375 "/>
<path style=" stroke:none;fill-rule:nonzero;fill:rgb(32.54902%,75.686275%,87.058824%);fill-opacity:1;" d="M 50.085938 36.632812 C 54.4375 36.632812 57.96875 40.125 57.96875 44.4375 C 57.96875 48.75 54.4375 52.246094 50.085938 52.246094 C 45.734375 52.246094 42.203125 48.75 42.203125 44.4375 C 42.203125 40.125 45.734375 36.632812 50.085938 36.632812 "/>
</g>
</svg>
