<?xml version="1.0" encoding="UTF-8"?>
<svg xmlns="http://www.w3.org/2000/svg" xmlns:xlink="http://www.w3.org/1999/xlink" width="31pt" height="31pt" viewBox="0 0 31 31" version="1.1">
<g id="surface1">
<path style=" stroke:none;fill-rule:nonzero;fill:rgb(95.294118%,94.117647%,94.117647%);fill-opacity:1;" d="M 25.066406 9.007812 C 25.402344 9.007812 25.671875 8.734375 25.671875 8.402344 L 25.671875 1.816406 C 25.671875 0.816406 24.859375 0 23.855469 0 L 1.816406 0 C 0.816406 0 0 0.816406 0 1.816406 L 0 29.183594 C 0 30.183594 0.816406 31 1.816406 31 L 23.855469 31 C 24.859375 31 25.671875 30.183594 25.671875 29.183594 L 25.671875 24.722656 C 25.671875 24.386719 25.402344 24.117188 25.066406 24.117188 C 24.734375 24.117188 24.460938 24.386719 24.460938 24.722656 L 24.460938 29.183594 C 24.460938 29.515625 24.191406 29.789062 23.855469 29.789062 L 1.816406 29.789062 C 1.484375 29.789062 1.210938 29.515625 1.210938 29.183594 L 1.210938 1.816406 C 1.210938 1.484375 1.484375 1.210938 1.816406 1.210938 L 23.855469 1.210938 C 24.191406 1.210938 24.460938 1.484375 24.460938 1.816406 L 24.460938 8.402344 C 24.460938 8.734375 24.734375 9.007812 25.066406 9.007812 Z M 25.066406 9.007812 "/>
<path style=" stroke:none;fill-rule:nonzero;fill:rgb(95.294118%,94.117647%,94.117647%);fill-opacity:1;" d="M 12.835938 3.269531 C 9.765625 3.269531 7.265625 5.769531 7.265625 8.839844 C 7.265625 10.433594 7.9375 11.871094 9.015625 12.886719 C 9.035156 12.910156 9.054688 12.929688 9.078125 12.949219 C 10.070312 13.855469 11.390625 14.410156 12.835938 14.410156 C 14.28125 14.410156 15.601562 13.855469 16.59375 12.949219 C 16.617188 12.929688 16.636719 12.910156 16.65625 12.886719 C 17.734375 11.871094 18.40625 10.433594 18.40625 8.839844 C 18.40625 5.769531 15.90625 3.269531 12.835938 3.269531 Z M 12.835938 13.199219 C 11.847656 13.199219 10.933594 12.867188 10.203125 12.3125 C 10.734375 11.367188 11.726562 10.777344 12.835938 10.777344 C 13.945312 10.777344 14.9375 11.367188 15.46875 12.3125 C 14.738281 12.867188 13.824219 13.199219 12.835938 13.199219 Z M 11.867188 8.597656 L 11.867188 8.203125 C 11.867188 7.671875 12.300781 7.234375 12.835938 7.234375 C 13.371094 7.234375 13.804688 7.671875 13.804688 8.203125 L 13.804688 8.597656 C 13.804688 9.132812 13.371094 9.566406 12.835938 9.566406 C 12.300781 9.566406 11.867188 9.132812 11.867188 8.597656 Z M 16.34375 11.425781 C 15.898438 10.761719 15.277344 10.246094 14.5625 9.929688 C 14.847656 9.558594 15.015625 9.097656 15.015625 8.597656 L 15.015625 8.203125 C 15.015625 7.003906 14.039062 6.023438 12.835938 6.023438 C 11.632812 6.023438 10.65625 7.003906 10.65625 8.203125 L 10.65625 8.597656 C 10.65625 9.097656 10.828125 9.558594 11.113281 9.929688 C 10.394531 10.246094 9.773438 10.761719 9.328125 11.425781 C 8.792969 10.699219 8.476562 9.804688 8.476562 8.839844 C 8.476562 6.4375 10.433594 4.480469 12.835938 4.480469 C 15.238281 4.480469 17.195312 6.4375 17.195312 8.839844 C 17.195312 9.804688 16.878906 10.699219 16.34375 11.425781 Z M 16.34375 11.425781 "/>
<path style=" stroke:none;fill-rule:nonzero;fill:rgb(95.294118%,94.117647%,94.117647%);fill-opacity:1;" d="M 16.105469 26.519531 L 12.835938 26.519531 C 12.503906 26.519531 12.230469 26.789062 12.230469 27.125 C 12.230469 27.460938 12.503906 27.730469 12.835938 27.730469 L 16.105469 27.730469 C 16.441406 27.730469 16.710938 27.460938 16.710938 27.125 C 16.710938 26.789062 16.441406 26.519531 16.105469 26.519531 Z M 16.105469 26.519531 "/>
<path style=" stroke:none;fill-rule:nonzero;fill:rgb(95.294118%,94.117647%,94.117647%);fill-opacity:1;" d="M 16.105469 23.128906 L 7.507812 23.128906 C 7.175781 23.128906 6.902344 23.398438 6.902344 23.734375 C 6.902344 24.070312 7.175781 24.339844 7.507812 24.339844 L 16.105469 24.339844 C 16.441406 24.339844 16.710938 24.070312 16.710938 23.734375 C 16.710938 23.398438 16.441406 23.128906 16.105469 23.128906 Z M 16.105469 23.128906 "/>
<path style=" stroke:none;fill-rule:nonzero;fill:rgb(95.294118%,94.117647%,94.117647%);fill-opacity:1;" d="M 16.105469 19.738281 L 7.507812 19.738281 C 7.175781 19.738281 6.902344 20.007812 6.902344 20.34375 C 6.902344 20.679688 7.175781 20.949219 7.507812 20.949219 L 16.105469 20.949219 C 16.441406 20.949219 16.710938 20.679688 16.710938 20.34375 C 16.710938 20.007812 16.441406 19.738281 16.105469 19.738281 Z M 16.105469 19.738281 "/>
<path style=" stroke:none;fill-rule:nonzero;fill:rgb(95.294118%,94.117647%,94.117647%);fill-opacity:1;" d="M 5.351562 16.523438 C 5.238281 16.414062 5.082031 16.347656 4.921875 16.347656 C 4.761719 16.347656 4.605469 16.414062 4.492188 16.523438 C 4.382812 16.636719 4.316406 16.792969 4.316406 16.953125 C 4.316406 17.113281 4.382812 17.269531 4.492188 17.382812 C 4.605469 17.492188 4.761719 17.558594 4.921875 17.558594 C 5.082031 17.558594 5.238281 17.492188 5.351562 17.382812 C 5.464844 17.269531 5.527344 17.113281 5.527344 16.953125 C 5.527344 16.792969 5.464844 16.636719 5.351562 16.523438 Z M 5.351562 16.523438 "/>
<path style=" stroke:none;fill-rule:nonzero;fill:rgb(95.294118%,94.117647%,94.117647%);fill-opacity:1;" d="M 5.351562 19.914062 C 5.238281 19.804688 5.082031 19.738281 4.921875 19.738281 C 4.761719 19.738281 4.605469 19.804688 4.492188 19.914062 C 4.382812 20.027344 4.316406 20.183594 4.316406 20.34375 C 4.316406 20.503906 4.382812 20.660156 4.492188 20.773438 C 4.605469 20.882812 4.761719 20.949219 4.921875 20.949219 C 5.082031 20.949219 5.238281 20.882812 5.351562 20.773438 C 5.464844 20.660156 5.527344 20.503906 5.527344 20.34375 C 5.527344 20.183594 5.464844 20.027344 5.351562 19.914062 Z M 5.351562 19.914062 "/>
<path style=" stroke:none;fill-rule:nonzero;fill:rgb(95.294118%,94.117647%,94.117647%);fill-opacity:1;" d="M 5.351562 23.304688 C 5.238281 23.195312 5.082031 23.128906 4.921875 23.128906 C 4.761719 23.128906 4.605469 23.195312 4.492188 23.304688 C 4.382812 23.417969 4.316406 23.574219 4.316406 23.734375 C 4.316406 23.894531 4.382812 24.050781 4.492188 24.164062 C 4.605469 24.273438 4.761719 24.339844 4.921875 24.339844 C 5.082031 24.339844 5.238281 24.273438 5.351562 24.164062 C 5.464844 24.050781 5.527344 23.894531 5.527344 23.734375 C 5.527344 23.574219 5.464844 23.417969 5.351562 23.304688 Z M 5.351562 23.304688 "/>
<path style=" stroke:none;fill-rule:nonzero;fill:rgb(95.294118%,94.117647%,94.117647%);fill-opacity:1;" d="M 16.105469 16.347656 L 7.507812 16.347656 C 7.175781 16.347656 6.902344 16.617188 6.902344 16.953125 C 6.902344 17.289062 7.175781 17.558594 7.507812 17.558594 L 16.105469 17.558594 C 16.441406 17.558594 16.710938 17.289062 16.710938 16.953125 C 16.710938 16.617188 16.441406 16.347656 16.105469 16.347656 Z M 16.105469 16.347656 "/>
<path style=" stroke:none;fill-rule:nonzero;fill:rgb(95.294118%,94.117647%,94.117647%);fill-opacity:1;" d="M 29.730469 7.890625 C 29.140625 7.550781 28.457031 7.460938 27.800781 7.636719 C 27.144531 7.8125 26.59375 8.234375 26.253906 8.820312 L 18.636719 22.019531 C 18.59375 22.089844 18.566406 22.171875 18.558594 22.253906 L 18.023438 27.058594 C 17.996094 27.296875 18.113281 27.527344 18.320312 27.648438 C 18.414062 27.703125 18.519531 27.730469 18.625 27.730469 C 18.75 27.730469 18.875 27.691406 18.984375 27.613281 L 22.875 24.746094 C 22.941406 24.695312 23 24.632812 23.039062 24.5625 L 30.660156 11.363281 C 31.359375 10.148438 30.941406 8.589844 29.730469 7.890625 Z M 19.378906 25.816406 L 19.660156 23.308594 L 21.410156 24.320312 Z M 22.292969 23.429688 L 19.988281 22.097656 L 26.101562 11.507812 L 28.410156 12.839844 Z M 29.609375 10.757812 L 29.015625 11.792969 L 26.707031 10.460938 L 27.304688 9.425781 C 27.480469 9.117188 27.769531 8.898438 28.113281 8.804688 C 28.457031 8.714844 28.816406 8.761719 29.125 8.9375 C 29.429688 9.117188 29.652344 9.40625 29.742188 9.746094 C 29.835938 10.089844 29.789062 10.449219 29.609375 10.757812 Z M 29.609375 10.757812 "/>
</g>
</svg>
