<?xml version="1.0" encoding="UTF-8"?>
<svg xmlns="http://www.w3.org/2000/svg" xmlns:xlink="http://www.w3.org/1999/xlink" width="100pt" height="99pt" viewBox="0 0 100 99" version="1.1">
<g id="surface1">
<path style=" stroke:none;fill-rule:nonzero;fill:rgb(27.45098%,26.27451%,25.882353%);fill-opacity:1;" d="M 7.078125 49.5 C 7.078125 66.308594 16.90625 80.835938 31.160156 87.71875 L 10.777344 32.21875 C 8.40625 37.5 7.078125 43.34375 7.078125 49.5 Z M 78.652344 47.355469 C 78.652344 42.109375 76.753906 38.472656 75.125 35.644531 C 72.960938 32.148438 70.929688 29.183594 70.929688 25.6875 C 70.929688 21.785156 73.910156 18.148438 78.105469 18.148438 C 78.296875 18.148438 78.476562 18.171875 78.660156 18.183594 C 71.058594 11.261719 60.929688 7.035156 49.804688 7.035156 C 34.878906 7.035156 21.746094 14.648438 14.105469 26.175781 C 15.109375 26.207031 16.054688 26.226562 16.855469 26.226562 C 21.324219 26.226562 28.242188 25.6875 28.242188 25.6875 C 30.546875 25.554688 30.820312 28.917969 28.519531 29.1875 C 28.519531 29.1875 26.203125 29.457031 23.628906 29.59375 L 39.1875 75.589844 L 48.539062 47.71875 L 41.878906 29.589844 C 39.578125 29.457031 37.398438 29.183594 37.398438 29.183594 C 35.097656 29.050781 35.367188 25.550781 37.667969 25.6875 C 37.667969 25.6875 44.726562 26.226562 48.925781 26.226562 C 53.394531 26.226562 60.3125 25.6875 60.3125 25.6875 C 62.617188 25.550781 62.886719 28.914062 60.585938 29.183594 C 60.585938 29.183594 58.265625 29.457031 55.695312 29.589844 L 71.136719 75.238281 L 75.398438 61.085938 C 77.246094 55.210938 78.652344 50.992188 78.652344 47.355469 Z M 50.554688 53.214844 L 37.738281 90.238281 C 41.5625 91.355469 45.613281 91.96875 49.804688 91.96875 C 54.78125 91.96875 59.554688 91.113281 63.996094 89.5625 C 63.878906 89.378906 63.777344 89.1875 63.691406 88.976562 Z M 87.296875 29.125 C 87.480469 30.480469 87.585938 31.929688 87.585938 33.492188 C 87.585938 37.800781 86.777344 42.644531 84.335938 48.703125 L 71.285156 86.207031 C 83.988281 78.84375 92.53125 65.167969 92.53125 49.5 C 92.53125 42.117188 90.636719 35.175781 87.296875 29.125 Z M 49.804688 0 C 22.34375 0 0 22.207031 0 49.5 C 0 76.796875 22.34375 99.003906 49.804688 99.003906 C 77.269531 99.003906 99.617188 76.796875 99.617188 49.5 C 99.613281 22.207031 77.269531 0 49.804688 0 Z M 49.804688 96.734375 C 23.601562 96.734375 2.285156 75.542969 2.285156 49.5 C 2.285156 23.457031 23.601562 2.269531 49.804688 2.269531 C 76.007812 2.269531 97.328125 23.457031 97.328125 49.5 C 97.328125 75.542969 76.007812 96.734375 49.804688 96.734375 Z M 49.804688 96.734375 "/>
</g>
</svg>
